<?xml version="1.0" encoding="utf-8"?>
<!-- Generator: Adobe Illustrator 22.0.1, SVG Export Plug-In . SVG Version: 6.00 Build 0)  -->
<svg version="1.1" id="Layer_1" xmlns="http://www.w3.org/2000/svg" xmlns:xlink="http://www.w3.org/1999/xlink" x="0px" y="0px"
	 viewBox="0 0 99 98" style="enable-background:new 0 0 99 98;" xml:space="preserve">
<path d="M92,33.1c-1.1-1-6.2-1.2-9.6-1.3H82c-0.2,0-0.3,0-0.4,0c-0.5,0-1,0-1.4,0c-2.7,0-3.9,2.8-4.1,3.9c-0.3,1.4-1.3,5-1.9,7.3
	l-0.3-0.4v0l-0.3-0.4c0.7-2.3,1.5-5.4,1.8-6.7c0.2-1.3,1.6-4.5,4.9-4.5c0.5,0,1.1,0,1.6,0c0.4-1.8,0.1-3.1-0.9-4
	c-0.7-0.6-3.6-1-8.7-1c-0.3,0-0.7,0-1,0c-2.1,0-3,2.2-3.2,3c-0.2,1-0.8,3-1.3,4.5l-0.3-0.4l-0.3-0.4c0.4-1.4,0.9-3.1,1.1-3.9
	c0.2-1,1.3-3.7,4-3.7c0.4,0,0.8,0,1.3,0c0.2-1.4-0.1-2.6-0.8-3.3c-1-0.9-6-1.4-7.9-1.4c-1.9,0-2.7,1.8-2.8,2.7
	c-0.2,0.8-0.5,2.1-0.8,3.1c-0.9-0.5-2-0.8-3.3-1.1v-5.5c0-2-3.3-3.6-7.4-3.6c-4.1,0-7.4,1.6-7.4,3.6v5.5c-1.2,0.3-2.3,0.6-3.1,1.1
	c-0.3-0.9-0.6-2.2-0.8-3c-0.1-0.8-1-2.7-2.8-2.7c-1.8,0-6.9,0.5-7.9,1.4c-0.8,0.7-1.1,1.9-0.8,3.3c0.4,0,0.8,0,1.2,0
	c2.7,0,3.8,2.7,4,3.7c0.2,0.8,0.6,2.4,1.1,3.8L32.5,33l-0.3,0.4c-0.5-1.5-1.1-3.4-1.3-4.4c-0.2-0.8-1-3-3.1-3c-0.4,0-0.7,0-1,0
	c-5.1,0-8,0.4-8.7,1c-0.9,0.9-1.2,2.2-0.9,4c0.5,0,1.1,0,1.6,0c3.3,0,4.6,3.3,4.9,4.5c0.2,1.2,1.1,4.3,1.7,6.5l-0.3,0.4l-0.3,0.4
	c-0.7-2.3-1.7-5.8-1.9-7.2c-0.2-1.1-1.3-3.9-4.1-3.9c-0.4,0-0.8,0-1.4,0c-0.1,0-0.3,0-0.4,0h-0.4c-3.4,0-8.5,0.3-9.6,1.3
	c-1.4,1.3-1.7,3.6-0.8,6.4c1.2,3.7,4.3,20.7,4.4,21.4c0,0,0.9,2,6.5,2.9v6.1l-5.3-2.1c-0.5-0.2-1.1,0.1-1.3,0.6
	c-0.1,0.4-0.1,0.8,0.2,1c-0.1,0.2-0.2,0.4-0.2,0.7c0,0.7,0.5,1.2,1.2,1.2c0.6,0,1-0.4,1.2-0.9l3,1.2L11,73.4
	c-0.5,0.2-0.8,0.8-0.6,1.3c0,0.1,0.1,0.1,0.1,0.2c-0.1,0.2-0.2,0.4-0.2,0.6c0,0.7,0.5,1.2,1.2,1.2s1.2-0.5,1.2-1.2
	c0-0.2-0.1-0.4-0.1-0.6l5.9-2.3l5.7,2.3c-0.1,0.1-0.1,0.3-0.1,0.4c0,0.7,0.5,1.2,1.2,1.2s1.2-0.5,1.2-1.2c0-0.2,0-0.3-0.1-0.4
	c0,0,0-0.1,0.1-0.1c0.2-0.5,0-1.1-0.6-1.3l-4.7-1.9l3.2-1.3c0.2,0.3,0.5,0.5,0.9,0.5c0.6,0,1.2-0.5,1.2-1.2c0-0.1,0-0.3-0.1-0.4
	c0.1-0.3,0.2-0.6,0-0.8c-0.2-0.5-0.8-0.8-1.3-0.6l-5.3,2.1v-5.8c0.2,0,0.4,0,0.6,0c0.3,0.2,0.6,0.3,1,0.4c0.3,0.2,0.7,0.3,1.1,0.4
	c2.4,0.9,5.2,1.8,8.3,2.4c1.5,0.9,2.8,2.3,2.8,4.1c0,4,0,9.3,0,9.3s1.5,3.4,16.3,3.4c14.7,0,16.3-3.4,16.3-3.4s0-5.3,0-9.3
	c0-1.7,1.1-3,2.4-3.9c0,0,0,0,0,0c3.6-0.7,6.9-1.6,9.5-2.7c0,0,0,0,0,0h0c0,0,0,0,0,0c0.1,0,0.3,0,0.4,0v4.9l-5.3-2.1
	c-0.5-0.2-1.1,0.1-1.3,0.6c-0.1,0.4-0.1,0.8,0.2,1c-0.1,0.2-0.2,0.4-0.2,0.7c0,0.7,0.5,1.2,1.2,1.2c0.6,0,1-0.4,1.2-0.9l3,1.2
	l-4.7,1.9c-0.5,0.2-0.8,0.8-0.6,1.3c0,0.1,0.1,0.1,0.1,0.2c-0.1,0.2-0.2,0.4-0.2,0.6c0,0.7,0.5,1.2,1.2,1.2c0.6,0,1.2-0.5,1.2-1.2
	c0-0.2-0.1-0.4-0.1-0.6l5.8-2.3l5.7,2.3c-0.1,0.1-0.1,0.3-0.1,0.4c0,0.7,0.5,1.2,1.2,1.2s1.2-0.5,1.2-1.2c0-0.2,0-0.3-0.1-0.4
	c0,0,0-0.1,0.1-0.1c0.2-0.5,0-1.1-0.6-1.3l-4.7-1.9l3.2-1.3c0.2,0.3,0.6,0.5,0.9,0.5c0.7,0,1.2-0.5,1.2-1.2c0-0.1,0-0.3-0.1-0.4
	c0.1-0.3,0.2-0.6,0-0.8c-0.2-0.5-0.8-0.8-1.3-0.6l-5.3,2.1v-6c6.3-0.8,7.3-3,7.3-3.1c0.1-0.6,3.2-17.7,4.4-21.3
	C93.7,36.7,93.4,34.4,92,33.1z M81.2,55.8c0,0,0,0.1,0,0.1c-1.3,3.2-16.2,7-31.7,7c-15.9,0-30-4.6-31.3-7.5c0-0.1,0-0.1-0.1-0.2
	c0-0.1,0-0.1,0-0.2V55l0,0c0-0.1,0.1-0.2,0.2-0.3l5.9-7.6l1.9-2.4l5.6-7.1l2-2.5l4.6-5.9c1-1.2,3.7-2.6,11.2-2.6
	c5.9,0,9.7,0.9,11.1,2.6l4.7,6v0l1.3,1.6l0,0l0,0l6.2,7.9l1.4,1.8l0,0l0,0l6.3,8l0.1,0.1C81.2,55.3,81.2,55.6,81.2,55.8z"/>
</svg>
