<?xml version="1.0" encoding="utf-8"?>
<!-- Generator: Adobe Illustrator 22.0.1, SVG Export Plug-In . SVG Version: 6.00 Build 0)  -->
<svg version="1.1" id="Layer_1" xmlns="http://www.w3.org/2000/svg" xmlns:xlink="http://www.w3.org/1999/xlink" x="0px" y="0px"
	 viewBox="0 0 128 130.7" style="enable-background:new 0 0 128 130.7;" xml:space="preserve">
<g>
	<path d="M71.1,18.5L50.4,0.6l1.5,7C40,10.2,29.5,16.4,21.5,25.1l17,15.6c4.8-5.2,11.1-8.9,18.3-10.5l1.5,7L71.1,18.5z"/>
	<path d="M118.8,81.7c1.8-5.6,2.8-11.5,2.8-17.7c0-6-0.9-11.9-2.7-17.4l-22,6.9c1,3.3,1.6,6.8,1.6,10.4c0,3.7-0.6,7.3-1.7,10.6
		L90,72.4l9.9,20.5l25.8-9L118.8,81.7z"/>
	<path d="M89.6,40.8l-5.3,4.8l22.7,1.7l5.1-26.8l-5.3,4.8c-7.9-8.7-18.4-15-30.3-17.6l-5,22.5C78.6,31.8,84.9,35.6,89.6,40.8z"/>
	<path d="M38.4,87.2l5.3-4.8L21,80.6l-5.1,26.8l5.3-4.8c7.9,8.7,18.4,15,30.3,17.6l5-22.5C49.4,96.2,43.1,92.4,38.4,87.2z"/>
	<path d="M29.4,64c0-3.7,0.6-7.3,1.7-10.6l6.9,2.2l-9.9-20.5l-25.8,9l6.8,2.2C7.4,51.9,6.4,57.8,6.4,64c0,6,0.9,11.9,2.7,17.4
		l22-6.9C30,71.1,29.4,67.6,29.4,64z"/>
	<path d="M71.2,97.8l-1.5-7l-12.8,18.8l20.7,17.8l-1.5-7c11.9-2.5,22.5-8.8,30.4-17.4l-17-15.6C84.7,92.5,78.4,96.3,71.2,97.8z"/>
</g>
</svg>
