<?xml version="1.0" encoding="utf-8"?>
<!-- Generator: Adobe Illustrator 22.0.1, SVG Export Plug-In . SVG Version: 6.00 Build 0)  -->
<svg version="1.1" id="Layer_1" xmlns="http://www.w3.org/2000/svg" xmlns:xlink="http://www.w3.org/1999/xlink" x="0px" y="0px"
	 viewBox="0 0 64 65" style="enable-background:new 0 0 64 65;" xml:space="preserve">
<title>performance-speed-operate-capability-effectiveness</title>
<path d="M61.1,28.1l-3.6-1c-0.2-1.2-0.5-2.4-0.9-3.5l2.6-2.7c0.3-0.3,0.4-0.7,0.2-1.1c-0.8-1.9-1.9-3.7-3.1-5.3
	c-0.2-0.3-0.7-0.5-1.1-0.4L51.6,15C50.8,14,50,13.2,49,12.4L50,8.8c0.1-0.4,0-0.8-0.4-1.1c-1.7-1.2-3.4-2.2-5.3-3.1
	c-0.4-0.2-0.8-0.1-1.1,0.2l-2.7,2.6c-1.2-0.4-2.3-0.7-3.5-0.9l-1-3.6c-0.1-0.4-0.5-0.7-0.9-0.7c-2-0.2-4.1-0.2-6.2,0
	c-0.4,0-0.8,0.3-0.9,0.7l-1,3.6c-1.2,0.2-2.4,0.5-3.5,0.9l-2.7-2.6c-0.3-0.3-0.7-0.4-1.1-0.2c-1.9,0.8-3.7,1.9-5.3,3.1
	c-0.3,0.2-0.5,0.7-0.4,1.1l0.9,3.6C14,13.2,13.2,14,12.4,15L8.8,14c-0.4-0.1-0.8,0-1.1,0.4c-1.2,1.7-2.2,3.4-3.1,5.3
	c-0.2,0.4-0.1,0.8,0.2,1.1l2.6,2.7c-0.4,1.2-0.7,2.3-0.9,3.5l-3.6,1c-0.4,0.1-0.7,0.5-0.7,0.9c-0.2,2-0.2,4.1,0,6.2
	c0,0.4,0.3,0.8,0.7,0.9l3.6,1c0.2,1.2,0.5,2.4,0.9,3.5l-2.6,2.7c-0.3,0.3-0.4,0.7-0.2,1.1c0.8,1.9,1.9,3.7,3.1,5.3
	c0.2,0.3,0.7,0.5,1.1,0.4l3.6-0.9c0.8,0.9,1.7,1.8,2.6,2.6L14,55.2c-0.1,0.4,0,0.8,0.4,1.1c1.7,1.2,3.4,2.2,5.3,3.1
	c0.4,0.2,0.8,0.1,1.1-0.2l2.7-2.6c1.2,0.4,2.3,0.7,3.5,0.9l1,3.6c0.1,0.4,0.5,0.7,0.9,0.7c2,0.2,4.1,0.2,6.2,0
	c0.4,0,0.8-0.3,0.9-0.7l1-3.6c1.2-0.2,2.4-0.5,3.5-0.9l2.7,2.6c0.3,0.3,0.7,0.4,1.1,0.2c1.9-0.8,3.7-1.9,5.3-3.1
	c0.3-0.2,0.5-0.7,0.4-1.1L49,51.6c0.9-0.8,1.8-1.7,2.6-2.6l3.6,0.9c0.4,0.1,0.8,0,1.1-0.4c1.2-1.7,2.2-3.4,3.1-5.3
	c0.2-0.4,0.1-0.8-0.2-1.1l-2.6-2.7c0.4-1.2,0.7-2.3,0.9-3.5l3.6-1c0.4-0.1,0.7-0.5,0.7-0.9c0.2-2,0.2-4.1,0-6.2
	C61.8,28.5,61.5,28.2,61.1,28.1z M59.9,34.2l-3.5,1c-0.4,0.1-0.7,0.4-0.7,0.8c-0.3,1.5-0.6,3-1.2,4.4c-0.1,0.4,0,0.8,0.2,1l2.6,2.6
	c-0.6,1.3-1.4,2.6-2.2,3.8L51.5,47c-0.4-0.1-0.8,0-1,0.3c-1,1.2-2,2.3-3.2,3.2c-0.3,0.2-0.4,0.6-0.3,1l0.9,3.5
	c-1.2,0.8-2.5,1.6-3.8,2.2l-2.6-2.6c-0.3-0.3-0.7-0.4-1-0.2C39,55,37.5,55.4,36,55.7c-0.4,0.1-0.7,0.3-0.8,0.7l-1,3.5
	c-1.5,0.1-2.9,0.1-4.4,0l-1-3.5c-0.1-0.4-0.4-0.7-0.8-0.7c-1.5-0.3-3-0.6-4.4-1.2c-0.4-0.1-0.8-0.1-1,0.2l-2.6,2.6
	c-1.3-0.6-2.6-1.4-3.8-2.2l0.9-3.5c0.1-0.4,0-0.8-0.3-1c-1.2-1-2.2-2-3.2-3.2c-0.2-0.3-0.6-0.4-1-0.3l-3.5,0.9
	c-0.8-1.2-1.6-2.5-2.2-3.8l2.6-2.6c0.3-0.3,0.4-0.7,0.2-1C9,39,8.6,37.5,8.3,36c-0.1-0.4-0.3-0.7-0.7-0.8l-3.5-1C4,33.5,4,32.7,4,32
	s0-1.5,0.1-2.2l3.5-1C8,28.7,8.3,28.4,8.3,28c0.3-1.5,0.6-3,1.2-4.4c0.1-0.4,0-0.8-0.2-1l-2.6-2.6c0.6-1.3,1.4-2.6,2.2-3.8l3.5,0.9
	c0.4,0.1,0.8,0,1-0.3c1-1.2,2-2.2,3.2-3.2c0.3-0.2,0.4-0.6,0.3-1l-0.9-3.5c1.2-0.8,2.5-1.6,3.8-2.2l2.6,2.6c0.3,0.3,0.7,0.4,1,0.2
	C25,9,26.5,8.6,28,8.3c0.4-0.1,0.7-0.3,0.8-0.7l1-3.5c1.5-0.1,2.9-0.1,4.4,0l1,3.5C35.3,8,35.6,8.3,36,8.3c1.5,0.3,3,0.6,4.4,1.2
	c0.4,0.1,0.8,0.1,1-0.2l2.6-2.6c1.3,0.6,2.6,1.4,3.8,2.2L47,12.5c-0.1,0.4,0,0.8,0.3,1c1.2,1,2.3,2,3.2,3.2c0.2,0.3,0.6,0.4,1,0.3
	l3.5-0.9c0.8,1.2,1.6,2.5,2.2,3.8l-2.6,2.6c-0.3,0.3-0.4,0.7-0.2,1c0.5,1.4,0.9,2.9,1.2,4.4c0.1,0.4,0.3,0.7,0.7,0.8l3.5,1
	C60,30.5,60,31.3,60,32S60,33.5,59.9,34.2L59.9,34.2z"/>
<path d="M32,12c-11,0-20,9-20,20s9,20,20,20s20-9,20-20C52,21,43,12,32,12z M49.9,33c-0.2,4.1-1.8,7.9-4.5,11l-2.1-2.1l-1.4,1.4
	l2.1,2.1c-3,2.7-6.9,4.3-11,4.5V47h-2v2.9c-4.1-0.2-7.9-1.8-11-4.5l2.1-2.1l-1.4-1.4L18.6,44c-2.7-3-4.3-6.9-4.6-11H17v-2h-2.9
	c0.2-4.1,1.8-7.9,4.6-11l2.1,2.1l1.4-1.4L20,18.6c3-2.7,6.9-4.3,11-4.6V17h2v-2.9c4.1,0.2,7.9,1.8,11,4.6l-2.1,2.1l1.4,1.4l2.1-2.1
	c2.7,3,4.3,6.9,4.5,11H47v2H49.9z"/>
<path d="M39.4,23.2L32.2,28c-0.1,0-0.1,0-0.2,0c-2.2,0-4,1.8-4,4s1.8,4,4,4s4-1.8,4-4c0-0.1,0-0.1,0-0.2l4.8-7.3
	c0.3-0.5,0.2-1.1-0.3-1.4C40.2,22.9,39.8,22.9,39.4,23.2z M34.1,31c-0.1,0.2-0.2,0.5-0.2,0.7c0,0.1,0,0.2,0,0.3c0,1.1-0.9,2-2,2
	c-1.1,0-2-0.9-2-2c0-1.1,0.9-2,2-2c0.1,0,0.2,0,0.3,0c0.2,0,0.5,0,0.7-0.2l3.4-2.3L34.1,31z"/>
</svg>
