<?xml version="1.0" encoding="utf-8"?>
<!-- Generator: Adobe Illustrator 22.0.1, SVG Export Plug-In . SVG Version: 6.00 Build 0)  -->
<svg version="1.1" id="Layer_1" xmlns="http://www.w3.org/2000/svg" xmlns:xlink="http://www.w3.org/1999/xlink" x="0px" y="0px"
	 viewBox="0 0 100 100" style="enable-background:new 0 0 100 100;" xml:space="preserve">
<title>Gears</title>
<path d="M68.9,41.3c-0.2-0.6-0.8-1.1-1.4-1l-5.3,0.5c-0.8-1-1.8-2-2.8-2.8l0.4-5.3c0.1-0.6-0.4-1.2-1-1.4L52,29.4
	c-0.6-0.2-1.3,0.1-1.5,0.7l-2.4,4.8c-1.3,0.2-2.7,0.5-3.9,1l-4.5-3c-0.5-0.4-1.2-0.3-1.7,0.2l-4.9,5c-0.5,0.5-0.5,1.2-0.2,1.7l3,4.5
	c-0.5,1.3-0.9,2.6-1,4l-4.7,2.3c-0.6,0.3-0.9,0.9-0.7,1.5l1.8,6.6c0.2,0.6,0.7,1,1.4,1l5.3-0.4c0.4,0.6,0.8,1.1,1.3,1.6
	c0.5,0.5,1,0.9,1.5,1.3l-0.3,5.2c0,0.6,0.4,1.2,1,1.4l6.6,1.8c0.1,0,0.2,0,0.4,0c0.5,0,1-0.3,1.2-0.7l2.5-4.7c1.4-0.2,2.7-0.5,3.9-1
	l4.5,3c0.5,0.3,1.2,0.2,1.7-0.2l4.9-4.9c0.5-0.5,0.5-1.2,0.2-1.7l-3-4.5c0.5-1.3,0.8-2.6,1-3.9l4.9-2.5c0.6-0.3,0.9-0.9,0.7-1.6
	L68.9,41.3z M43.4,50c0-3.7,3-6.7,6.7-6.7s6.7,3,6.7,6.7s-3,6.7-6.7,6.7l0,0C46.4,56.7,43.4,53.7,43.4,50z"/>
<path d="M29.6,70.4c-8-8-10.6-20-6.6-30.6l0.4,1.6c0.2,0.9,1,1.6,2,1.5c0.2,0,0.3,0,0.5,0c1.1-0.2,1.7-1.3,1.5-2.4c0,0,0,0,0,0
	l-1.6-6.8c-0.2-1.1-1.3-1.7-2.4-1.5c0,0,0,0,0,0l-6.9,1.6c-1.1,0.2-1.8,1.3-1.5,2.4s1.3,1.8,2.4,1.5l0,0l2.5-0.6
	c-7.2,16.7,0.5,36,17.2,43.2c9.6,4.1,20.5,3.5,29.6-1.8l-2-3.4C53.3,81.6,38.9,79.7,29.6,70.4z"/>
<path d="M82.6,62.4l-2.4,0.5c7.1-16.7-0.6-36-17.3-43.2c-9.7-4.1-20.7-3.4-29.7,2l2,3.4c13.7-8.2,31.4-3.7,39.6,10
	c4.5,7.6,5.3,16.9,2.2,25.1l-0.4-1.7c-0.2-1.1-1.3-1.8-2.4-1.5c-1.1,0.2-1.8,1.3-1.5,2.4l1.6,6.8c0.2,0.9,1,1.6,1.9,1.6
	c0.2,0,0.3,0,0.4-0.1l6.8-1.6c1.1-0.2,1.8-1.3,1.5-2.4C84.8,62.8,83.7,62.1,82.6,62.4L82.6,62.4z"/>
</svg>
