<?xml version="1.0" encoding="utf-8"?>
<!-- Generator: Adobe Illustrator 21.0.2, SVG Export Plug-In . SVG Version: 6.00 Build 0)  -->
<svg version="1.1" id="Layer_1" xmlns="http://www.w3.org/2000/svg" xmlns:xlink="http://www.w3.org/1999/xlink" x="0px" y="0px"
	 viewBox="0 0 64 80" style="enable-background:new 0 0 64 80;" xml:space="preserve">
<g>
	<g>
		<path d="M20,21c3.9,0,7-3.1,7-7s-3.1-7-7-7s-7,3.1-7,7S16.1,21,20,21z M20,9c2.8,0,5,2.2,5,5s-2.2,5-5,5s-5-2.2-5-5S17.2,9,20,9z"
			/>
		<path d="M28,23H12c-2.8,0-5,2.2-5,5v12c0,0.6,0.4,1,1,1h5v15c0,0.6,0.4,1,1,1h12c0.6,0,1-0.4,1-1V41h5c0.6,0,1-0.4,1-1V28
			C33,25.2,30.8,23,28,23z M31,39h-4v-7c0-0.6-0.4-1-1-1s-1,0.4-1,1v8v15h-4V42c0-0.6-0.4-1-1-1s-1,0.4-1,1v13h-4V40v-8
			c0-0.6-0.4-1-1-1s-1,0.4-1,1v7H9V28c0-1.7,1.3-3,3-3h16c1.7,0,3,1.3,3,3V39z"/>
		<path d="M44,13h-4c-0.6,0-1,0.4-1,1s0.4,1,1,1h4c0.6,0,1-0.4,1-1S44.6,13,44,13z"/>
		<path d="M51.3,16.7c0.2,0.2,0.4,0.3,0.7,0.3c0,0,0.1,0,0.1,0c0.3,0,0.6-0.2,0.7-0.4l4-6c0.3-0.5,0.2-1.1-0.3-1.4
			c-0.5-0.3-1.1-0.2-1.4,0.3l-3.3,5l-1.1-1.1c-0.4-0.4-1-0.4-1.4,0s-0.4,1,0,1.4L51.3,16.7z"/>
		<path d="M44,25h-4c-0.6,0-1,0.4-1,1s0.4,1,1,1h4c0.6,0,1-0.4,1-1S44.6,25,44,25z"/>
		<path d="M55.2,21.4l-3.3,5l-1.1-1.1c-0.4-0.4-1-0.4-1.4,0s-0.4,1,0,1.4l2,2c0.2,0.2,0.4,0.3,0.7,0.3c0,0,0.1,0,0.1,0
			c0.3,0,0.6-0.2,0.7-0.4l4-6c0.3-0.5,0.2-1.1-0.3-1.4C56.1,20.9,55.5,21,55.2,21.4z"/>
		<path d="M44,37h-4c-0.6,0-1,0.4-1,1s0.4,1,1,1h4c0.6,0,1-0.4,1-1S44.6,37,44,37z"/>
		<path d="M55.2,33.4l-3.3,5l-1.1-1.1c-0.4-0.4-1-0.4-1.4,0s-0.4,1,0,1.4l2,2c0.2,0.2,0.4,0.3,0.7,0.3c0,0,0.1,0,0.1,0
			c0.3,0,0.6-0.2,0.7-0.4l4-6c0.3-0.5,0.2-1.1-0.3-1.4C56.1,32.9,55.5,33,55.2,33.4z"/>
		<path d="M44,49h-4c-0.6,0-1,0.4-1,1s0.4,1,1,1h4c0.6,0,1-0.4,1-1S44.6,49,44,49z"/>
		<path d="M55.2,45.4l-3.3,5l-1.1-1.1c-0.4-0.4-1-0.4-1.4,0s-0.4,1,0,1.4l2,2c0.2,0.2,0.4,0.3,0.7,0.3c0,0,0.1,0,0.1,0
			c0.3,0,0.6-0.2,0.7-0.4l4-6c0.3-0.5,0.2-1.1-0.3-1.4C56.1,44.9,55.5,45,55.2,45.4z"/>
	</g>
</g>
</svg>
