<?xml version="1.0" encoding="utf-8"?>
<!-- Generator: Adobe Illustrator 21.0.2, SVG Export Plug-In . SVG Version: 6.00 Build 0)  -->
<svg version="1.1" id="Layer_1" xmlns="http://www.w3.org/2000/svg" xmlns:xlink="http://www.w3.org/1999/xlink" x="0px" y="0px"
	 viewBox="0 0 100 125" style="enable-background:new 0 0 100 125;" xml:space="preserve">
<path d="M87,29c0-3.9-3.1-7-7-7H18c-3.9,0-7,3.1-7,7v44c0,3.9,3.1,7,7,7h62c3.9,0,7-3.1,7-7V29z M39,76V26h20v50H39z M83,29v44
	c0,1.7-1.3,3-3,3H63V26h17C81.7,26,83,27.3,83,29z M15,29c0-1.7,1.3-3,3-3h17v50H18c-1.7,0-3-1.3-3-3V29z"/>
</svg>
