<?xml version="1.0" encoding="utf-8"?>
<!-- Generator: Adobe Illustrator 21.0.2, SVG Export Plug-In . SVG Version: 6.00 Build 0)  -->
<svg version="1.1" id="Layer_1" xmlns="http://www.w3.org/2000/svg" xmlns:xlink="http://www.w3.org/1999/xlink" x="0px" y="0px"
	 viewBox="0 0 100 125" style="enable-background:new 0 0 100 125;" xml:space="preserve">
<g>
	<path d="M5,28v44h90V28H5z M11.3,40.4h15.5c0.8,0,1.4,0.6,1.4,1.4c0,0.8-0.6,1.4-1.4,1.4H11.3c-0.8,0-1.4-0.6-1.4-1.4
		C9.9,41,10.6,40.4,11.3,40.4z M85.2,63.8H11.3c-0.8,0-1.4-0.6-1.4-1.4c0-0.8,0.6-1.4,1.4-1.4h73.9c0.8,0,1.4,0.6,1.4,1.4
		C86.7,63.1,86,63.8,85.2,63.8z M85.2,55.5H11.3c-0.8,0-1.4-0.6-1.4-1.4c0-0.8,0.6-1.4,1.4-1.4h73.9c0.8,0,1.4,0.6,1.4,1.4
		C86.7,54.9,86,55.5,85.2,55.5z"/>
</g>
</svg>
