<?xml version="1.0" encoding="utf-8"?>
<!-- Generator: Adobe Illustrator 21.0.2, SVG Export Plug-In . SVG Version: 6.00 Build 0)  -->
<svg version="1.1"
	 id="Layer_1" xmlns:cc="http://creativecommons.org/ns#" xmlns:dc="http://purl.org/dc/elements/1.1/" xmlns:inkscape="http://www.inkscape.org/namespaces/inkscape" xmlns:rdf="http://www.w3.org/1999/02/22-rdf-syntax-ns#" xmlns:sodipodi="http://sodipodi.sourceforge.net/DTD/sodipodi-0.dtd" xmlns:svg="http://www.w3.org/2000/svg"
	 xmlns="http://www.w3.org/2000/svg" xmlns:xlink="http://www.w3.org/1999/xlink" x="0px" y="0px" viewBox="0 0 100 125"
	 style="enable-background:new 0 0 100 125;" xml:space="preserve">
<g transform="translate(0,-952.36218)">
	<path d="M50,958.4c-24.3,0-44,19.7-44,44c0,24.3,19.7,44,44,44c24.3,0,44-19.7,44-44C94,978.1,74.3,958.4,50,958.4L50,958.4z
		 M50,962.4c22.1,0,40,17.9,40,40c0,22.1-17.9,40-40,40s-40-17.9-40-40C10,980.2,27.9,962.4,50,962.4L50,962.4z M56,971.4
		c-2.8,0-5,2.2-5,5s2.2,5,5,5c2.8,0,5-2.2,5-5S58.8,971.4,56,971.4z M50.8,983.4c-3.3,0.2-6.8,1.9-9.7,4.3l-0.3,3.7
		c2.8-1.2,5.6-1.2,6.4,1.6c2.1,6.8-5,18.6-6.9,24.8c-5.2,16.8,7.3,18.8,16.3,11.8l0.3-4c-4.9,1.7-8.4-0.4-5.5-9.2
		c1.4-4.2,12.7-25.6,4.9-31.5C54.6,983.8,52.7,983.3,50.8,983.4L50.8,983.4z"/>
</g>
</svg>
