<?xml version="1.0" encoding="utf-8"?>
<!-- Generator: Adobe Illustrator 22.0.1, SVG Export Plug-In . SVG Version: 6.00 Build 0)  -->
<svg version="1.1" id="Layer_1" xmlns="http://www.w3.org/2000/svg" xmlns:xlink="http://www.w3.org/1999/xlink" x="0px" y="0px"
	 viewBox="0 0 100 112" style="enable-background:new 0 0 100 112;" xml:space="preserve">
<g>
	<path d="M45.5,26.3v-2c-0.5-0.9-0.8-1.8-0.9-2.7c-0.3,0-0.7-0.4-1.1-2c-0.6-2.1,0-2.4,0.6-2.3c-0.4-1.1-0.4-2.2-0.1-3.2
		c0.3-1.2,0.9-2.1,1.6-2.8c0.4-0.5,1-0.9,1.5-1.2c0.4-0.3,0.9-0.6,1.4-0.7l0,0c0.4-0.1,0.9-0.2,1.3-0.3c1.4-0.1,2.5,0.2,3.3,0.7
		c1.2,0.6,1.6,1.5,1.6,1.5s2.9,0.2,1.7,6.4c0.4,0.1,0.7,0.7,0.2,2.3c-0.6,2-1.1,2.1-1.4,1.9c-0.1,0.7-0.3,1.4-0.7,2.2
		c0,1,0,1.9,0,2.3c0,0.1,0.1,0.2,0.1,0.2c0.8,0.4,4.5,2.3,7.9,5.1c0.6,0.5,1,1.3,1,2.1v3.8H51.8l-1.2-5.3c2.3-3.3-0.2-3.4-0.6-3.4
		l0,0l0,0c-0.4,0-3,0.2-0.6,3.4l-1.2,5.3H36.5v-3.8c0-0.8,0.4-1.6,1-2.1c3.4-2.8,7.2-4.7,7.9-5.1C45.5,26.5,45.5,26.4,45.5,26.3z
		 M73,50.9c0,0-0.3-0.7-1.2-1.2c-0.6-0.4-1.4-0.6-2.6-0.5c-0.4,0-0.7,0.1-1,0.2l0,0c-0.4,0.1-0.8,0.3-1.1,0.6
		c-0.4,0.3-0.8,0.6-1.2,1c-0.5,0.6-1,1.3-1.2,2.2c-0.2,0.8-0.2,1.6,0.1,2.4c-0.4,0-0.9,0.2-0.4,1.8c0.3,1.2,0.6,1.5,0.9,1.5
		c0.1,0.7,0.3,1.4,0.7,2.1v1.5c0,0.1,0,0.1-0.1,0.2c-0.6,0.3-3.5,1.7-6.1,3.9c-0.5,0.4-0.7,1-0.7,1.6v2.9H68l0.9-4.1
		c-1.8-2.5,0.1-2.7,0.5-2.7l0,0l0,0c0.3,0,2.3,0.1,0.5,2.7l0.9,4.1h9.1v-2.9c0-0.6-0.3-1.2-0.7-1.6c-2.7-2.2-5.5-3.7-6.1-3.9
		c-0.1,0-0.1-0.1-0.1-0.2c0-0.3,0-1,0-1.8c0.3-0.5,0.4-1.1,0.5-1.7c0.2,0.2,0.6,0.1,1.1-1.5c0.4-1.3,0.1-1.7-0.2-1.8
		C75.2,51,73,50.9,73,50.9z M27.1,62.6c-0.6,0.3-3.5,1.7-6.1,3.9c-0.5,0.4-0.7,1-0.7,1.6V71h9.1l0.9-4.1c-1.8-2.5,0.1-2.7,0.5-2.7
		l0,0l0,0c0.3,0,2.3,0.1,0.5,2.7l0.9,4.1h9.1v-2.9c0-0.6-0.3-1.2-0.7-1.6c-2.7-2.2-5.5-3.7-6.1-3.9c-0.1,0-0.1-0.1-0.1-0.2
		c0-0.3,0-1,0-1.8c0.3-0.5,0.4-1.1,0.5-1.7c0.2,0.2,0.6,0.1,1.1-1.5c0.4-1.3,0.1-1.7-0.2-1.8c1-4.8-1.3-4.9-1.3-4.9
		s-0.3-0.7-1.2-1.2c-0.6-0.4-1.4-0.6-2.6-0.5c-0.4,0-0.7,0.1-1,0.2l0,0c-0.4,0.1-0.8,0.3-1.1,0.6c-0.4,0.3-0.8,0.6-1.2,1
		c-0.5,0.6-1,1.3-1.2,2.2c-0.2,0.8-0.2,1.6,0.1,2.4c-0.4,0-0.9,0.2-0.4,1.8c0.3,1.2,0.6,1.5,0.9,1.5c0.1,0.7,0.3,1.4,0.7,2.1v1.5
		C27.2,62.5,27.1,62.6,27.1,62.6z M58.3,56.5l-6.7-4.3v-8c0-0.9-0.7-1.6-1.6-1.6c-0.9,0-1.6,0.7-1.6,1.6v8l-6.7,4.3
		c-0.8,0.5-1,1.5-0.5,2.3c0.5,0.7,1.5,1,2.3,0.5L50,55l6.5,4.2c0.3,0.2,0.6,0.3,0.9,0.3c0.6,0,1.1-0.3,1.4-0.7
		C59.3,58,59.1,57,58.3,56.5z M51.1,102.9h7.5v-2.4c0-0.5-0.2-1-0.6-1.3c-2.2-1.8-4.6-3-5.1-3.3c-0.1,0-0.1-0.1-0.1-0.1
		c0-0.2,0-0.8,0-1.5c0.2-0.5,0.4-0.9,0.4-1.4c0.2,0.1,0.5,0.1,0.9-1.2c0.3-1,0.1-1.4-0.1-1.5c0.8-4-1.1-4.1-1.1-4.1s-0.3-0.5-1-1
		c-0.5-0.3-1.2-0.5-2.1-0.4c-0.3,0-0.6,0.1-0.8,0.2l0,0c-0.3,0.1-0.7,0.3-0.9,0.5c-0.3,0.2-0.7,0.5-1,0.8c-0.5,0.5-0.9,1.1-1,1.8
		c-0.2,0.6-0.2,1.3,0.1,2c-0.3,0-0.7,0.2-0.4,1.5c0.3,1,0.5,1.2,0.7,1.3c0.1,0.6,0.3,1.2,0.6,1.7v1.3c0,0.1,0,0.1-0.1,0.1
		c-0.5,0.2-2.9,1.4-5.1,3.3c-0.4,0.3-0.6,0.8-0.6,1.3v2.4h7.5l0.7-3.4c-1.5-2.1,0.1-2.2,0.4-2.2l0,0l0,0c0.3,0,1.9,0.1,0.4,2.2
		L51.1,102.9z M85.7,95.8c-0.5,0.2-2.9,1.4-5.1,3.3c-0.4,0.3-0.6,0.8-0.6,1.3v2.4h7.5l0.7-3.4c-1.5-2.1,0.1-2.2,0.4-2.2l0,0l0,0
		c0.3,0,1.9,0.1,0.4,2.2l0.7,3.4h7.5v-2.4c0-0.5-0.2-1-0.6-1.3c-2.2-1.8-4.6-3-5.1-3.3c-0.1,0-0.1-0.1-0.1-0.1c0-0.2,0-0.8,0-1.5
		c0.2-0.5,0.4-0.9,0.4-1.4c0.2,0.1,0.5,0.1,0.9-1.2c0.3-1,0.1-1.4-0.1-1.5c0.8-4-1.1-4.1-1.1-4.1s-0.3-0.5-1-1
		c-0.5-0.3-1.2-0.5-2.1-0.4c-0.3,0-0.6,0.1-0.8,0.2l0,0c-0.3,0.1-0.6,0.3-0.9,0.5s-0.7,0.5-1,0.8c-0.5,0.5-0.9,1.1-1,1.8
		c-0.2,0.6-0.2,1.3,0.1,2c-0.3,0-0.7,0.2-0.4,1.5c0.3,1,0.5,1.2,0.7,1.3c0.1,0.6,0.3,1.2,0.6,1.7V95.8
		C85.8,95.8,85.8,95.8,85.7,95.8z M3.2,99.1c-0.4,0.3-0.6,0.8-0.6,1.3v2.4h7.5l0.7-3.4c-1.5-2.1,0.1-2.2,0.4-2.2l0,0l0,0
		c0.3,0,1.9,0.1,0.4,2.2l0.7,3.4H20v-2.4c0-0.5-0.2-1-0.6-1.3c-2.2-1.8-4.6-3-5.1-3.3c-0.1,0-0.1-0.1-0.1-0.1c0-0.2,0-0.8,0-1.5
		c0.2-0.5,0.4-0.9,0.4-1.4c0.2,0.1,0.5,0.1,0.9-1.2c0.3-1,0.1-1.4-0.1-1.5c0.8-4-1.1-4.1-1.1-4.1s-0.3-0.5-1-1
		c-0.5-0.3-1.2-0.5-2.1-0.4c-0.3,0-0.6,0.1-0.8,0.2l0,0c-0.3,0.1-0.6,0.3-0.9,0.5c-0.3,0.2-0.7,0.5-1,0.8c-0.5,0.5-0.9,1.1-1,1.8
		c-0.2,0.6-0.2,1.3,0.1,2c-0.3,0-0.7,0.2-0.4,1.5c0.3,1,0.5,1.2,0.7,1.3c0.1,0.6,0.3,1.2,0.6,1.7v1.3c0,0.1,0,0.1-0.1,0.1
		C7.8,96.1,5.5,97.3,3.2,99.1z M69.3,76.2c-0.9,0-1.6,0.7-1.6,1.6v8L61,90.1c-0.8,0.5-1,1.5-0.5,2.3c0.5,0.7,1.5,1,2.3,0.5l6.5-4.2
		l6.5,4.2c0.3,0.2,0.6,0.3,0.9,0.3c0.6,0,1.1-0.3,1.4-0.7c0.5-0.8,0.3-1.8-0.5-2.3L71,85.8v-8C71,76.9,70.2,76.2,69.3,76.2z
		 M30.7,76.2c-0.9,0-1.6,0.7-1.6,1.6v8l-6.7,4.3c-0.8,0.5-1,1.5-0.5,2.3c0.5,0.7,1.5,1,2.3,0.5l6.5-4.2l6.5,4.2
		c0.3,0.2,0.6,0.3,0.9,0.3c0.6,0,1.1-0.3,1.4-0.7c0.5-0.8,0.3-1.8-0.5-2.3l-6.7-4.3v-8C32.3,76.9,31.6,76.2,30.7,76.2z"/>
</g>
</svg>
