<?xml version="1.0" encoding="utf-8"?>
<!-- Generator: Adobe Illustrator 21.0.2, SVG Export Plug-In . SVG Version: 6.00 Build 0)  -->
<svg version="1.1" id="Layer_1" xmlns="http://www.w3.org/2000/svg" xmlns:xlink="http://www.w3.org/1999/xlink" x="0px" y="0px"
	 viewBox="0 0 100 125" style="enable-background:new 0 0 100 125;" xml:space="preserve">
<title>Noun_Project_100Icon_1px_grid</title>
<path d="M64.4,13.9c-5.1,0.1-9.1,4.3-9,9.4c0.1,3.9,2.6,7.3,6.2,8.5c-0.3,5.1-4.4,9-9.5,9h-3.5c-3.6,0-7.1,1.3-9.8,3.7V31.8
	c4.9-1.5,7.6-6.6,6.1-11.5s-6.6-7.6-11.5-6.1s-7.6,6.6-6.1,11.5c0.9,2.9,3.2,5.2,6.1,6.1v36.4c-4.9,1.5-7.6,6.6-6.1,11.5
	c1.5,4.9,6.6,7.6,11.5,6.1c4.9-1.5,7.6-6.6,6.1-11.5c-0.9-2.9-3.2-5.2-6.1-6.1v-7.9c0.1-0.3,0.2-0.7,0.2-1.1v-3.4
	c0-5.2,4.3-9.5,9.5-9.5l0,0H52c8.1,0,14.7-6.4,15-14.4c4.9-1.5,7.6-6.6,6.1-11.5C71.9,16.6,68.4,13.9,64.4,13.9z M36.1,19.4
	c2,0,3.7,1.7,3.7,3.7s-1.7,3.7-3.7,3.7s-3.7-1.7-3.7-3.7S34.1,19.4,36.1,19.4L36.1,19.4z M36.1,80.6c-2,0-3.7-1.7-3.7-3.7
	c0-2,1.7-3.7,3.7-3.7s3.7,1.7,3.7,3.7l0,0C39.8,78.9,38.1,80.6,36.1,80.6z M64.4,26.9c-2,0-3.7-1.7-3.7-3.7c0-2,1.7-3.7,3.7-3.7
	c2,0,3.7,1.7,3.7,3.7v0C68.1,25.2,66.4,26.9,64.4,26.9z"/>
</svg>
