<svg xmlns="http://www.w3.org/2000/svg" xmlns:xlink="http://www.w3.org/1999/xlink" version="1.1" x="0px" y="0px" viewBox="0 0 128 160" enable-background="new 0 0 128 128" xml:space="preserve"><path d="M101.844,46.25h-5.63v-20c0-1.104-0.896-2-2-2H83.25c-1.104,0-2,0.896-2,2s0.896,2,2,2h8.964v19.332  c-0.075,0.21-0.123,0.433-0.123,0.668s0.048,0.458,0.123,0.668V65.75H36.895v-37.5H72c1.104,0,2-0.896,2-2s-0.896-2-2-2H34.895  c-1.104,0-2,0.896-2,2v20h-6.738c-1.104,0-2,0.896-2,2s0.896,2,2,2h6.738v17.5c0,1.104,0.896,2,2,2h28.303v7.981  c-15.699,0.435-27.303,5.963-27.303,13.203c0,7.544,12.598,13.233,29.303,13.233S94.5,98.478,94.5,90.934  c0-7.24-11.604-12.768-27.303-13.203V69.75h27.017c1.104,0,2-0.896,2-2v-17.5h5.63c1.104,0,2-0.896,2-2S102.948,46.25,101.844,46.25  z M90.5,90.934c0,4.358-10.821,9.233-25.303,9.233s-25.303-4.875-25.303-9.233S50.716,81.7,65.197,81.7S90.5,86.575,90.5,90.934z"/><text x="0" y="143" fill="#000000" font-size="5px" font-weight="bold" font-family="'Helvetica Neue', Helvetica, Arial-Unicode, Arial, Sans-serif">Created by Ary Prasetyo</text><text x="0" y="148" fill="#000000" font-size="5px" font-weight="bold" font-family="'Helvetica Neue', Helvetica, Arial-Unicode, Arial, Sans-serif">from the Noun Project</text></svg>