<?xml version="1.0" encoding="utf-8"?>
<!-- Generator: Adobe Illustrator 21.0.2, SVG Export Plug-In . SVG Version: 6.00 Build 0)  -->
<svg version="1.1" id="Layer_1" xmlns="http://www.w3.org/2000/svg" xmlns:xlink="http://www.w3.org/1999/xlink" x="0px" y="0px"
	 viewBox="0 0 100 125" style="enable-background:new 0 0 100 125;" xml:space="preserve">
<path d="M10.8,20v10v50h80V30V20H10.8z M83.2,23.7c0-0.5,0.4-0.9,0.9-0.9h2.8c0.5,0,0.9,0.4,0.9,0.9v2.8c0,0.5-0.4,0.9-0.9,0.9h-2.8
	c-0.5,0-0.9-0.4-0.9-0.9V23.7z M75.7,23.7c0-0.5,0.4-0.9,0.9-0.9h2.8c0.5,0,0.9,0.4,0.9,0.9v2.8c0,0.5-0.4,0.9-0.9,0.9h-2.8
	c-0.5,0-0.9-0.4-0.9-0.9V23.7z M68.1,23.7c0-0.5,0.4-0.9,0.9-0.9h2.8c0.5,0,0.9,0.4,0.9,0.9v2.8c0,0.5-0.4,0.9-0.9,0.9H69
	c-0.5,0-0.9-0.4-0.9-0.9V23.7z M88.8,78h-76V30h76V78z"/>
<g>
	<path d="M23.7,52.9l14.4-8v4.7L27.5,55v0.1L38,60.4v4.7l-14.4-8V52.9z"/>
	<path d="M47.1,66.6L52,39.1h3.6l-4.9,27.5H47.1z"/>
	<path d="M78,57.1l-14.4,8v-4.7l10.5-5.3V55l-10.5-5.3v-4.7l14.4,8C78,52.9,78,57.1,78,57.1z"/>
</g>
</svg>
