<?xml version="1.0" encoding="utf-8"?>
<!-- Generator: Adobe Illustrator 21.0.2, SVG Export Plug-In . SVG Version: 6.00 Build 0)  -->
<svg version="1.1" id="Layer_1" xmlns="http://www.w3.org/2000/svg" xmlns:xlink="http://www.w3.org/1999/xlink" x="0px" y="0px"
	 viewBox="0 0 100 125" style="enable-background:new 0 0 100 125;" xml:space="preserve">
<g>
	<path d="M50,10c-22.1,0-40,17.9-40,40s17.9,40,40,40s40-17.9,40-40S72.1,10,50,10z M50,87.5c-20.7,0-37.5-16.8-37.5-37.5
		S29.3,12.5,50,12.5S87.5,29.3,87.5,50S70.7,87.5,50,87.5z"/>
	<path d="M50,35c-8.3,0-15,6.7-15,15s6.7,15,15,15s15-6.7,15-15S58.3,35,50,35z"/>
	<path d="M50,29.6c-11.2,0-20.4,9.1-20.4,20.4c0,11.2,9.1,20.4,20.4,20.4c11.2,0,20.4-9.1,20.4-20.4C70.4,38.8,61.2,29.6,50,29.6z
		 M50,68.4c-10.1,0-18.4-8.2-18.4-18.4S39.9,31.6,50,31.6S68.4,39.9,68.4,50S60.1,68.4,50,68.4z"/>
</g>
</svg>
