<?xml version="1.0" encoding="utf-8"?>
<!-- Generator: Adobe Illustrator 21.0.2, SVG Export Plug-In . SVG Version: 6.00 Build 0)  -->
<svg version="1.1"
	 id="Layer_1" xmlns:cc="http://creativecommons.org/ns#" xmlns:dc="http://purl.org/dc/elements/1.1/" xmlns:inkscape="http://www.inkscape.org/namespaces/inkscape" xmlns:rdf="http://www.w3.org/1999/02/22-rdf-syntax-ns#" xmlns:sodipodi="http://sodipodi.sourceforge.net/DTD/sodipodi-0.dtd" xmlns:svg="http://www.w3.org/2000/svg"
	 xmlns="http://www.w3.org/2000/svg" xmlns:xlink="http://www.w3.org/1999/xlink" x="0px" y="0px" viewBox="0 0 100 125"
	 style="enable-background:new 0 0 100 125;" xml:space="preserve">
<g transform="translate(0,-952.36218)">
	<path d="M18,958.4c-1.1,0-2,1.1-2,2v84c0,1,1,2,2,2h64c1,0,2-1,2-2v-70c0-0.5-0.2-1.1-0.6-1.4l-14-14c-0.4-0.4-0.9-0.6-1.4-0.6
		L18,958.4L18,958.4z M20,962.4h46v12c0,1.1,0.9,2,2,2h12v66H20V962.4L20,962.4z M70,965.2l7.2,7.2H70V965.2z M36,968.4
		c-1.1,0-2,0.9-2,2v1.2c-1.3,0.3-2.5,0.8-3.5,1.6c-1.5,1.2-2.5,3.1-2.5,5.2c0,2.3,1.3,4.1,2.8,5c1.1,0.6,2.1,1,3.2,1.4v6.2
		c-1.1-0.5-1.9-1.2-2.3-1.9c-0.6-0.9-1.8-1.3-2.8-0.7c-0.9,0.6-1.3,1.8-0.7,2.7c1.1,1.8,3.1,3.5,5.7,4.1v1.2c0,1.1,0.9,2,2,2
		c1.1,0,2-0.9,2-2v-1.2c1.3-0.3,2.5-0.8,3.5-1.6c1.5-1.2,2.5-3.1,2.5-5.2c0-2.3-1.3-4.1-2.8-5c-1.1-0.6-2.1-1-3.2-1.4v-6.1
		c1.1,0.5,1.9,1.2,2.3,1.9c0.6,0.9,1.8,1.3,2.8,0.7s1.3-1.8,0.7-2.8l0,0c-1.1-1.8-3.1-3.4-5.7-4v-1.2C38,969.3,37.1,968.4,36,968.4z
		 M34,975.7v4.8c-0.4-0.2-0.8-0.3-1.1-0.5c-0.8-0.5-0.9-0.5-0.9-1.6c0-0.9,0.3-1.6,1-2.1C33.3,976.1,33.6,975.9,34,975.7z M38,986.2
		c0.4,0.2,0.8,0.3,1.1,0.5c0.8,0.5,0.9,0.6,0.9,1.6c0,0.9-0.3,1.5-1,2.1c-0.3,0.2-0.6,0.4-1,0.6V986.2z M54,986.4c-1.1,0-2,0.9-2,2
		s0.9,2,2,2h16c1.1,0,2-0.9,2-2s-0.9-2-2-2H54z M30,1000.4c-1.1,0-2,0.9-2,2s0.9,2,2,2h40c1.1,0,2-0.9,2-2s-0.9-2-2-2H30z
		 M30,1014.4c-1.1,0-2,0.9-2,2s0.9,2,2,2h40c1.1,0,2-0.9,2-2s-0.9-2-2-2H30z M30,1028.4c-1.1,0-2,0.9-2,2s0.9,2,2,2h40
		c1.1,0,2-0.9,2-2s-0.9-2-2-2H30z"/>
</g>
</svg>
