<?xml version="1.0" encoding="utf-8"?>
<!-- Generator: Adobe Illustrator 21.0.2, SVG Export Plug-In . SVG Version: 6.00 Build 0)  -->
<svg version="1.1"
	 id="Layer_1" xmlns:cc="http://creativecommons.org/ns#" xmlns:dc="http://purl.org/dc/elements/1.1/" xmlns:inkscape="http://www.inkscape.org/namespaces/inkscape" xmlns:rdf="http://www.w3.org/1999/02/22-rdf-syntax-ns#" xmlns:sodipodi="http://sodipodi.sourceforge.net/DTD/sodipodi-0.dtd" xmlns:svg="http://www.w3.org/2000/svg"
	 xmlns="http://www.w3.org/2000/svg" xmlns:xlink="http://www.w3.org/1999/xlink" x="0px" y="0px" viewBox="0 0 100 97"
	 style="enable-background:new 0 0 100 97;" xml:space="preserve">
<g transform="translate(0,-952.36218)">
	<path d="M23,966.3c-1.7,0-3,1.4-3,3c0,0,0,0,0,0v2h-8c-3.8,0-7,3.2-7,7v53c0,3.8,3.2,7,7,7h76c3.8,0,7-3.2,7-7v-53c0-3.8-3.2-7-7-7
		h-8v-2c0-1.7-1.3-3-2.9-3.1c0,0-0.1,0-0.1,0c-1.7,0-3,1.4-3,3c0,0,0,0,0,0v2H62v-2c0-1.7-1.3-3-2.9-3.1c0,0-0.1,0-0.1,0
		c-1.7,0-3,1.4-3,3c0,0,0,0,0,0v2H44v-2c0-1.7-1.3-3-2.9-3.1c0,0-0.1,0-0.1,0c-1.7,0-3,1.4-3,3c0,0,0,0,0,0v2H26v-2
		C26,967.7,24.7,966.3,23,966.3C23,966.3,23,966.3,23,966.3z M12,977.4h8v2c0,1.7,1.3,3,3,3s3-1.3,3-3c0,0,0-0.1,0-0.1v-2h12v2
		c0,1.7,1.3,3,3,3c1.7,0,3-1.3,3-3c0,0,0-0.1,0-0.1v-2h12v2c0,1.7,1.3,3,3,3c1.7,0,3-1.3,3-3c0,0,0-0.1,0-0.1v-2h12v2
		c0,1.7,1.3,3,3,3s3-1.3,3-3c0,0,0-0.1,0-0.1v-2h8c0.6,0,1,0.4,1,1v53c0,0.6-0.4,1-1,1H12c-0.6,0-1-0.4-1-1v-53
		C11,977.8,11.4,977.4,12,977.4z M59,1009.4c-1.7,0-3,1.3-3,3v12c0,1.7,1.3,3,3,3h18c1.7,0,3-1.3,3-3v-12c0-0.1,0-0.2,0-0.3
		c-0.2-1.5-1.5-2.7-3-2.7H59z M62,1015.4h12v6H62V1015.4z"/>
</g>
</svg>
