<svg xmlns="http://www.w3.org/2000/svg" xmlns:xlink="http://www.w3.org/1999/xlink" version="1.1" x="0px" y="0px" viewBox="0 0 64 80" style="enable-background:new 0 0 64 64;" xml:space="preserve"><style type="text/css">
	.st0{display:none;}
	.st1{display:inline;}
	.st2{fill:none;stroke:#B3B3B3;stroke-width:0.1;stroke-miterlimit:10;}
</style><g class="st0"><g class="st1"><rect x="2" y="2" class="st2" width="60" height="60"/><line class="st2" x1="32" y1="2" x2="32" y2="62"/><line class="st2" x1="62" y1="32" x2="2" y2="32"/><line class="st2" x1="2" y1="2" x2="62" y2="62"/><rect x="10" y="10" class="st2" width="44" height="44"/><line class="st2" x1="62" y1="2" x2="2" y2="62"/><line class="st2" x1="2" y1="32" x2="32" y2="2"/><line class="st2" x1="32" y1="2" x2="62" y2="32"/><line class="st2" x1="62" y1="32" x2="32" y2="62"/><line class="st2" x1="32" y1="62" x2="2" y2="32"/><circle class="st2" cx="32" cy="32" r="21"/></g></g><path d="M42,2H22c-1.7,0-3,1.3-3,3v16c0,1.7,1.3,3,3,3h20c1.7,0,3-1.3,3-3V5C45,3.3,43.7,2,42,2z M30,8h-2c-0.6,0-1,0.4-1,1v1.8  c0,0.9-0.4,1.7-1,2.2c0.6,0.6,1,1.4,1,2.2V17c0,0.6,0.4,1,1,1h2v2h-2c-1.7,0-3-1.3-3-3v-1c0-1.1-0.9-2-2-2v-2c1.1,0,2-0.9,2-2V9  c0-1.7,1.3-3,3-3h2V8z M41,14c-1.1,0-2,0.9-2,2v1c0,1.7-1.3,3-3,3h-2v-2h2c0.6,0,1-0.4,1-1v-1.8c0-0.9,0.4-1.7,1-2.2  c-0.6-0.6-1-1.4-1-2.2V9c0-0.6-0.4-1-1-1h-2V6h2c1.7,0,3,1.3,3,3v1c0,1.1,0.9,2,2,2V14z"/><path d="M48,38h-7.6L33,30.6V26h-2v4.6L23.6,38H16c-1.7,0-3,1.3-3,3v9h2v-9c0-0.6,0.4-1,1-1h7.6l8.4,8.4l8.4-8.4H48c0.6,0,1,0.4,1,1  v9h2v-9C51,39.3,49.7,38,48,38z"/><path d="M24,52H4c-1.1,0-2,0.9-2,2v6c0,1.1,0.9,2,2,2h20c1.1,0,2-0.9,2-2v-6C26,52.9,25.1,52,24,52z"/><path d="M60,52H40c-1.1,0-2,0.9-2,2v6c0,1.1,0.9,2,2,2h20c1.1,0,2-0.9,2-2v-6C62,52.9,61.1,52,60,52z"/></svg>