<?xml version="1.0" encoding="utf-8"?>
<!-- Generator: Adobe Illustrator 22.0.1, SVG Export Plug-In . SVG Version: 6.00 Build 0)  -->
<svg version="1.1" id="Layer_1" xmlns="http://www.w3.org/2000/svg" xmlns:xlink="http://www.w3.org/1999/xlink" x="0px" y="0px"
	 viewBox="0 0 100 101" style="enable-background:new 0 0 100 101;" xml:space="preserve">
<title>Artboard 40</title>
<path d="M36.3,77.3l-2.4-4.1l13.7-8V49.4h4.7v15.9l13.7,7.9l-2.4,4.1l-13.8-7.9L36.3,77.3z M88.7,82.4c-1,2.5-2.2,4.9-3.6,7.2
	c0,0.1-0.1,0.1-0.2,0c0,0,0,0,0,0c-0.3-0.8-1.3-3.6-2.8-3.4c-0.1,0-0.1,0-0.2-0.1s0-0.1,0.1-0.2l0,0c1.9-1.4,3.6-3,5.3-4.7v-3.2
	c0.5-0.9,0.8-1.8,1-2.8c0.4,0,0.9-0.6,1.4-2.5c0.7-2.6,0-3-0.7-3c1.6-7.5-2.6-7.5-2.6-7.5c-0.7-1.9-2.7-3.1-4.7-2.8
	c-2.1,0.2-4.3,0.2-6.4-0.1c0,0.6,0.3,1.2,0.8,1.5c-3.8,2.3-2.9,7.4-2.6,8.8c-0.6,0-1.3,0.5-0.6,3c0.6,1.9,1.1,2.5,1.4,2.5
	c0.2,1,0.5,1.9,1,2.8v3.2c1.7,1.7,3.4,3.2,5.3,4.7c0,0,0.1,0.1,0,0.1c0,0-0.1,0.1-0.1,0l0,0c-1.6-0.2-2.6,2.6-2.8,3.4
	c0,0.1-0.1,0.1-0.2,0c0,0,0,0,0,0c-1.3-2.3-2.5-4.7-3.6-7.2c-3.3,1.7-6.4,3.8-9.2,6.1c-0.8,0.7-1.3,1.7-1.3,2.7v5h35.7v-5
	c0-1.1-0.5-2.1-1.3-2.7C95,86.1,92,84.1,88.7,82.4z M36.5,91.3c0-1.1-0.5-2.1-1.3-2.7c-2.9-2.3-6-4.4-9.2-6.1
	c-1,2.5-2.2,4.9-3.6,7.2c0,0.1-0.1,0.1-0.2,0c0,0,0,0,0,0c-0.3-0.8-1.3-3.6-2.8-3.4c0,0-0.1,0-0.1,0s0-0.1,0-0.1l0,0
	c1.9-1.4,3.6-3,5.3-4.7v-3.3c0.5-0.9,0.8-1.8,1-2.8c0.4,0,0.9-0.6,1.5-2.5c0.7-2.6,0-3-0.6-3c1.6-7.5-2.6-7.5-2.6-7.5
	c-0.7-1.9-2.7-3.1-4.7-2.8c-2.1,0.2-4.3,0.2-6.4-0.1c0,0.6,0.3,1.2,0.7,1.5c-3.8,2.3-2.9,7.4-2.6,8.8c-0.6,0-1.3,0.5-0.6,3
	c0.6,1.9,1.1,2.5,1.4,2.5c0.2,1,0.5,1.9,1,2.8v3.2c1.7,1.7,3.4,3.2,5.3,4.7c0,0,0.1,0.1,0,0.1s-0.1,0.1-0.1,0l0,0
	c-1.5-0.2-2.6,2.6-2.8,3.4c0,0.1-0.1,0.1-0.2,0c0,0,0,0,0,0c-1.3-2.3-2.5-4.7-3.6-7.2c-3.3,1.7-6.4,3.8-9.2,6.1
	c-0.8,0.7-1.3,1.7-1.3,2.8v5h35.7V91.3z M65.2,33.9c-0.1-1.3-1-2.5-2.2-3.1c-1-0.5-2.1-0.9-3.2-1.2c-1.7-0.5-3.4-1.1-5.1-1.8
	l-0.1-0.1c-0.3-0.2-0.5-0.6-0.5-1v-1.6l0,0v-0.5c0,0,4.7,0.1,6.9-2.1c0,0-3.2-0.9-2.6-6.8s-0.7-11-5.4-10.6c0,0-2-2.5-6.1-0.9
	c-1.4,0.5-5.2,1.9-5,10s-2.9,8.2-2.9,8.2s1.6,2.3,7,2.3v2c0,0.4-0.2,0.8-0.5,1l-0.1,0.1c-1.6,0.7-3.3,1.3-5.1,1.8
	C39,29.9,38,30.3,37,30.8c-1.2,0.6-2,1.7-2.2,3.1v6.6h30.4V33.9z"/>
</svg>
