<?xml version="1.0" encoding="utf-8"?>
<!-- Generator: Adobe Illustrator 22.0.1, SVG Export Plug-In . SVG Version: 6.00 Build 0)  -->
<svg version="1.1" id="Layer_1" xmlns="http://www.w3.org/2000/svg" xmlns:xlink="http://www.w3.org/1999/xlink" x="0px" y="0px"
	 viewBox="0 0 138 133.5" style="enable-background:new 0 0 138 133.5;" xml:space="preserve">
<style type="text/css">
	.st0{fill:none;stroke:#000000;stroke-width:2;stroke-miterlimit:10;}
</style>
<circle cx="34.4" cy="29.4" r="2.6"/>
<circle cx="43" cy="29.4" r="2.6"/>
<circle cx="51.6" cy="29.4" r="2.6"/>
<path d="M107.8,21.5H29.2c-3.1,0-5.7,2.5-5.7,5.7v78.6c0,3.1,2.5,5.7,5.7,5.7h78.6c3.1,0,5.7-2.5,5.7-5.7V27.2
	C113.5,24,111,21.5,107.8,21.5z M110.9,105.8c0,1.7-1.4,3.1-3.1,3.1H29.2c-1.7,0-3.1-1.4-3.1-3.1V37.2h84.8
	C110.9,37.2,110.9,105.8,110.9,105.8z M110.9,34.6H26.1v-7.4c0-1.7,1.4-3.1,3.1-3.1h78.6c1.7,0,3.1,1.4,3.1,3.1V34.6z"/>
<path d="M103.5,28.1H72.9c-0.7,0-1.3,0.6-1.3,1.3c0,0.7,0.6,1.3,1.3,1.3h30.6c0.7,0,1.3-0.6,1.3-1.3
	C104.8,28.6,104.2,28.1,103.5,28.1z"/>
<path d="M61.7,71.1c4.3,0,7.7-3.5,7.7-7.7c0-4.3-3.5-7.7-7.7-7.7c-4.3,0-7.7,3.5-7.7,7.7C54,67.6,57.4,71.1,61.7,71.1z M61.7,56.8
	c3.6,0,6.6,2.9,6.6,6.6c0,3.6-2.9,6.6-6.6,6.6c-3.6,0-6.6-2.9-6.6-6.6C55.1,59.7,58.1,56.8,61.7,56.8z"/>
<path d="M45.4,67.5h3.2c0.2,0.7,0.5,1.4,0.9,2.1l-2.3,2.3c-0.5,0.5-0.5,1.4,0,2l3.9,3.9c0.5,0.5,1.4,0.5,2,0l2.3-2.3
	c0.7,0.3,1.4,0.6,2.1,0.9v3.2c0,0.8,0.6,1.4,1.4,1.4h5.6c0.8,0,1.4-0.6,1.4-1.4v-3.2c0.7-0.2,1.4-0.5,2.1-0.9l2.3,2.3
	c0.5,0.5,1.4,0.5,2,0l3.9-3.9c0.5-0.5,0.5-1.4,0-2l-2.3-2.3c0.3-0.7,0.6-1.4,0.9-2.1H78c0.8,0,1.4-0.6,1.4-1.4v-5.6
	c0-0.8-0.6-1.4-1.4-1.4h-3.2c-0.2-0.7-0.5-1.4-0.9-2.1l2.3-2.3c0.5-0.5,0.5-1.4,0-2l-3.9-3.9c-0.5-0.5-1.4-0.5-2,0L68,51.2
	c-0.7-0.3-1.4-0.6-2.1-0.9v-3.2c0-0.8-0.6-1.4-1.4-1.4h-5.6c-0.8,0-1.4,0.6-1.4,1.4v3.2c-0.7,0.2-1.4,0.5-2.1,0.9l-2.3-2.3
	c-0.5-0.5-1.4-0.5-2,0l-3.9,3.9c-0.5,0.5-0.5,1.4,0,2l2.3,2.3c-0.3,0.7-0.6,1.4-0.9,2.1h-3.2c-0.8,0-1.4,0.6-1.4,1.4v5.6
	C44,66.9,44.7,67.5,45.4,67.5z M45.2,60.6c0-0.1,0.1-0.2,0.2-0.2h3.7c0.3,0,0.5-0.2,0.6-0.4c0.3-0.9,0.6-1.8,1.1-2.7
	c0.1-0.2,0.1-0.5-0.1-0.7l-2.6-2.6c-0.1-0.1-0.1-0.2,0-0.3l3.9-3.9c0.1-0.1,0.1-0.1,0.1-0.1c0,0,0.1,0,0.1,0.1l2.6,2.6
	c0.2,0.2,0.5,0.2,0.7,0.1c0.8-0.5,1.7-0.8,2.7-1.1c0.3-0.1,0.4-0.3,0.4-0.6v-3.7c0-0.1,0.1-0.2,0.2-0.2h5.6c0.1,0,0.2,0.1,0.2,0.2
	v3.7c0,0.3,0.2,0.5,0.4,0.6c0.9,0.3,1.8,0.6,2.7,1.1c0.2,0.1,0.5,0.1,0.7-0.1l2.6-2.6c0.1-0.1,0.1-0.1,0.1-0.1s0.1,0,0.1,0.1
	l3.9,3.9c0.1,0.1,0.1,0.2,0,0.3l-2.6,2.6c-0.2,0.2-0.2,0.5-0.1,0.7c0.5,0.8,0.8,1.7,1.1,2.7c0.1,0.3,0.3,0.4,0.6,0.4H78
	c0.1,0,0.2,0.1,0.2,0.2v5.6c0,0.1-0.1,0.2-0.2,0.2h-3.7c-0.3,0-0.5,0.2-0.6,0.4c-0.3,0.9-0.6,1.9-1.1,2.7c-0.1,0.2-0.1,0.5,0.1,0.7
	l2.6,2.6c0.1,0.1,0.1,0.2,0,0.3L71.4,77C71.4,77,71.3,77,71.3,77c0,0-0.1,0-0.1-0.1l-2.6-2.6c-0.2-0.2-0.5-0.2-0.7-0.1
	c-0.8,0.5-1.7,0.8-2.7,1.1c-0.3,0.1-0.4,0.3-0.4,0.6v3.7c0,0.1-0.1,0.2-0.2,0.2h-5.6c-0.1,0-0.2-0.1-0.2-0.2v-3.7
	c0-0.3-0.2-0.5-0.4-0.6c-0.9-0.3-1.8-0.6-2.7-1.1c-0.1-0.1-0.2-0.1-0.3-0.1c-0.2,0-0.3,0.1-0.4,0.2L52.3,77C52.2,77,52.2,77,52.2,77
	c0,0-0.1,0-0.1-0.1L48.1,73c-0.1-0.1-0.1-0.2,0-0.3l2.6-2.6c0.2-0.2,0.2-0.5,0.1-0.7c-0.5-0.8-0.8-1.7-1.1-2.7
	c-0.1-0.3-0.3-0.4-0.6-0.4h-3.7c-0.1,0-0.2-0.1-0.2-0.2V60.6z"/>
<path d="M84.5,91.5c3,0,5.4-2.4,5.4-5.4c0-3-2.4-5.4-5.4-5.4c-3,0-5.4,2.4-5.4,5.4C79.1,89.1,81.5,91.5,84.5,91.5z M84.5,81.9
	c2.3,0,4.2,1.9,4.2,4.2c0,2.3-1.9,4.2-4.2,4.2s-4.2-1.9-4.2-4.2C80.3,83.8,82.2,81.9,84.5,81.9z"/>
<path d="M77.3,76.3L74.7,79c-0.4,0.4-0.4,1.1,0,1.6l1.4,1.4c-0.2,0.4-0.3,0.8-0.5,1.2h-2c-0.6,0-1.1,0.5-1.1,1.1V88
	c0,0.6,0.5,1.1,1.1,1.1h2c0.1,0.4,0.3,0.8,0.5,1.2l-1.4,1.4c-0.4,0.4-0.4,1.1,0,1.6l2.6,2.6c0.4,0.4,1.2,0.4,1.6,0l1.4-1.4
	c0.4,0.2,0.8,0.3,1.2,0.5v2c0,0.6,0.5,1.1,1.1,1.1h3.7c0.6,0,1.1-0.5,1.1-1.1v-2c0.4-0.1,0.8-0.3,1.2-0.5l1.4,1.4
	c0.4,0.4,1.2,0.4,1.6,0l2.6-2.6c0.4-0.4,0.4-1.1,0-1.6l-1.4-1.4c0.2-0.4,0.3-0.8,0.5-1.2h2c0.6,0,1.1-0.5,1.1-1.1v-3.7
	c0-0.6-0.5-1.1-1.1-1.1h-2c-0.1-0.4-0.3-0.8-0.5-1.2l1.4-1.4c0.4-0.4,0.4-1.1,0-1.6l-2.6-2.6c-0.4-0.4-1.2-0.4-1.6,0l-1.4,1.4
	c-0.4-0.2-0.8-0.3-1.2-0.5v-2c0-0.6-0.5-1.1-1.1-1.1h-3.7c-0.6,0-1.1,0.5-1.1,1.1v2c-0.4,0.1-0.8,0.3-1.2,0.5l-1.4-1.4
	C78.5,75.9,77.7,75.9,77.3,76.3z M80.5,79c0.5-0.3,1.1-0.5,1.7-0.7c0.3-0.1,0.4-0.3,0.4-0.6v-2.4h3.6v2.4c0,0.3,0.2,0.5,0.4,0.6
	c0.6,0.2,1.2,0.4,1.7,0.7c0.2,0.1,0.5,0.1,0.7-0.1l1.7-1.7l2.5,2.5l-1.7,1.7c-0.2,0.2-0.2,0.5-0.1,0.7c0.3,0.5,0.5,1.1,0.7,1.7
	c0.1,0.3,0.3,0.4,0.6,0.4h2.4v3.6h-2.4c-0.3,0-0.5,0.2-0.6,0.4c-0.2,0.6-0.4,1.2-0.7,1.7c-0.1,0.2-0.1,0.5,0.1,0.7l1.7,1.7L90.9,95
	l-1.7-1.7c-0.2-0.2-0.5-0.2-0.7-0.1c-0.5,0.3-1.1,0.5-1.7,0.7c-0.3,0.1-0.4,0.3-0.4,0.6v2.4h-3.6v-2.4c0-0.3-0.2-0.5-0.4-0.6
	c-0.6-0.2-1.2-0.4-1.7-0.7c-0.2-0.1-0.5-0.1-0.7,0.1L78.1,95l-2.5-2.5l1.7-1.7c0.2-0.2,0.2-0.5,0.1-0.7c-0.3-0.5-0.5-1.1-0.7-1.7
	c-0.1-0.3-0.3-0.4-0.6-0.4h-2.4v-3.6h2.4c0.3,0,0.5-0.2,0.6-0.4c0.2-0.6,0.4-1.2,0.7-1.7c0.1-0.2,0.1-0.5-0.1-0.7l-1.7-1.7l2.5-2.5
	l1.7,1.7C80,79.1,80.3,79.1,80.5,79z"/>
<path class="st0" d="M114,122.8H23.3c-6.6,0-12-5.4-12-12V22.3c0-6.6,5.4-12,12-12H114c6.6,0,12,5.4,12,12v88.5
	C126,117.3,120.6,122.8,114,122.8z"/>
</svg>
