<?xml version="1.0" encoding="utf-8"?>
<!-- Generator: Adobe Illustrator 22.0.1, SVG Export Plug-In . SVG Version: 6.00 Build 0)  -->
<svg version="1.1" id="Layer_1" xmlns="http://www.w3.org/2000/svg" xmlns:xlink="http://www.w3.org/1999/xlink" x="0px" y="0px"
	 viewBox="0 0 100 100" style="enable-background:new 0 0 100 100;" xml:space="preserve">
<circle cx="15.9" cy="12.9" r="2.6"/>
<circle cx="24.5" cy="12.9" r="2.6"/>
<circle cx="33.1" cy="12.9" r="2.6"/>
<path d="M89.3,5H10.7C7.5,5,5,7.5,5,10.7v78.6c0,3.1,2.5,5.7,5.7,5.7h78.6c3.1,0,5.7-2.5,5.7-5.7V10.7C95,7.5,92.5,5,89.3,5z
	 M92.4,89.3c0,1.7-1.4,3.1-3.1,3.1H10.7c-1.7,0-3.1-1.4-3.1-3.1V20.7h84.8C92.4,20.7,92.4,89.3,92.4,89.3z M92.4,18.1H7.6v-7.4
	C7.6,9,9,7.6,10.7,7.6h78.6c1.7,0,3.1,1.4,3.1,3.1V18.1z"/>
<path d="M85,11.6H54.4c-0.7,0-1.3,0.6-1.3,1.3s0.6,1.3,1.3,1.3H85c0.7,0,1.3-0.6,1.3-1.3S85.7,11.6,85,11.6z"/>
<path d="M43.2,54.6c4.3,0,7.7-3.5,7.7-7.7c0-4.3-3.5-7.7-7.7-7.7c-4.3,0-7.7,3.5-7.7,7.7C35.5,51.1,38.9,54.6,43.2,54.6z M43.2,40.3
	c3.6,0,6.6,2.9,6.6,6.6c0,3.6-2.9,6.6-6.6,6.6c-3.6,0-6.6-2.9-6.6-6.6C36.6,43.2,39.6,40.3,43.2,40.3z"/>
<path d="M26.9,51h3.2c0.2,0.7,0.5,1.4,0.9,2.1l-2.3,2.3c-0.5,0.5-0.5,1.4,0,2l3.9,3.9c0.5,0.5,1.4,0.5,2,0l2.3-2.3
	c0.7,0.3,1.4,0.6,2.1,0.9v3.2c0,0.8,0.6,1.4,1.4,1.4H46c0.8,0,1.4-0.6,1.4-1.4v-3.2c0.7-0.2,1.4-0.5,2.1-0.9l2.3,2.3
	c0.5,0.5,1.4,0.5,2,0l3.9-3.9c0.5-0.5,0.5-1.4,0-2l-2.3-2.3c0.3-0.7,0.6-1.4,0.9-2.1h3.2c0.8,0,1.4-0.6,1.4-1.4v-5.6
	c0-0.8-0.6-1.4-1.4-1.4h-3.2c-0.2-0.7-0.5-1.4-0.9-2.1l2.3-2.3c0.5-0.5,0.5-1.4,0-2l-3.9-3.9c-0.5-0.5-1.4-0.5-2,0l-2.3,2.3
	c-0.7-0.3-1.4-0.6-2.1-0.9v-3.2c0-0.8-0.6-1.4-1.4-1.4h-5.6c-0.8,0-1.4,0.6-1.4,1.4v3.2c-0.7,0.2-1.4,0.5-2.1,0.9l-2.3-2.3
	c-0.5-0.5-1.4-0.5-2,0l-3.9,3.9c-0.5,0.5-0.5,1.4,0,2l2.3,2.3c-0.3,0.7-0.6,1.4-0.9,2.1h-3.2c-0.8,0-1.4,0.6-1.4,1.4v5.6
	C25.5,50.4,26.2,51,26.9,51z M26.7,44.1c0-0.1,0.1-0.2,0.2-0.2h3.7c0.3,0,0.5-0.2,0.6-0.4c0.3-0.9,0.6-1.8,1.1-2.7
	c0.1-0.2,0.1-0.5-0.1-0.7l-2.6-2.6c-0.1-0.1-0.1-0.2,0-0.3l3.9-3.9c0.1-0.1,0.1-0.1,0.1-0.1c0,0,0.1,0,0.1,0.1l2.6,2.6
	c0.2,0.2,0.5,0.2,0.7,0.1c0.8-0.5,1.7-0.8,2.7-1.1c0.3-0.1,0.4-0.3,0.4-0.6v-3.7c0-0.1,0.1-0.2,0.2-0.2H46c0.1,0,0.2,0.1,0.2,0.2
	v3.7c0,0.3,0.2,0.5,0.4,0.6c0.9,0.3,1.8,0.6,2.7,1.1c0.2,0.1,0.5,0.1,0.7-0.1l2.6-2.6c0.1-0.1,0.1-0.1,0.1-0.1s0.1,0,0.1,0.1
	l3.9,3.9c0.1,0.1,0.1,0.2,0,0.3L54.2,40c-0.2,0.2-0.2,0.5-0.1,0.7c0.5,0.8,0.8,1.7,1.1,2.7c0.1,0.3,0.3,0.4,0.6,0.4h3.7
	c0.1,0,0.2,0.1,0.2,0.2v5.6c0,0.1-0.1,0.2-0.2,0.2h-3.7c-0.3,0-0.5,0.2-0.6,0.4c-0.3,0.9-0.6,1.9-1.1,2.7c-0.1,0.2-0.1,0.5,0.1,0.7
	l2.6,2.6c0.1,0.1,0.1,0.2,0,0.3l-3.9,3.9c-0.1,0.1-0.1,0.1-0.1,0.1c0,0-0.1,0-0.1-0.1L50,57.9c-0.2-0.2-0.5-0.2-0.7-0.1
	c-0.8,0.5-1.7,0.8-2.7,1.1c-0.3,0.1-0.4,0.3-0.4,0.6v3.7c0,0.1-0.1,0.2-0.2,0.2h-5.6c-0.1,0-0.2-0.1-0.2-0.2v-3.7
	c0-0.3-0.2-0.5-0.4-0.6c-0.9-0.3-1.8-0.6-2.7-1.1c-0.1-0.1-0.2-0.1-0.3-0.1c-0.2,0-0.3,0.1-0.4,0.2l-2.6,2.6
	c-0.1,0.1-0.1,0.1-0.1,0.1c0,0-0.1,0-0.1-0.1l-3.9-3.9c-0.1-0.1-0.1-0.2,0-0.3l2.6-2.6c0.2-0.2,0.2-0.5,0.1-0.7
	c-0.5-0.8-0.8-1.7-1.1-2.7c-0.1-0.3-0.3-0.4-0.6-0.4h-3.7c-0.1,0-0.2-0.1-0.2-0.2V44.1z"/>
<path d="M66,75c3,0,5.4-2.4,5.4-5.4c0-3-2.4-5.4-5.4-5.4c-3,0-5.4,2.4-5.4,5.4C60.6,72.6,63,75,66,75z M66,65.4
	c2.3,0,4.2,1.9,4.2,4.2c0,2.3-1.9,4.2-4.2,4.2s-4.2-1.9-4.2-4.2C61.8,67.3,63.7,65.4,66,65.4z"/>
<path d="M58.8,59.8l-2.6,2.6c-0.4,0.4-0.4,1.1,0,1.6l1.4,1.4c-0.2,0.4-0.3,0.8-0.5,1.2h-2c-0.6,0-1.1,0.5-1.1,1.1v3.7
	c0,0.6,0.5,1.1,1.1,1.1h2c0.1,0.4,0.3,0.8,0.5,1.2l-1.4,1.4c-0.4,0.4-0.4,1.1,0,1.6l2.6,2.6c0.4,0.4,1.2,0.4,1.6,0l1.4-1.4
	c0.4,0.2,0.8,0.3,1.2,0.5v2c0,0.6,0.5,1.1,1.1,1.1h3.7c0.6,0,1.1-0.5,1.1-1.1v-2c0.4-0.1,0.8-0.3,1.2-0.5l1.4,1.4
	c0.4,0.4,1.2,0.4,1.6,0l2.6-2.6c0.4-0.4,0.4-1.1,0-1.6l-1.4-1.4c0.2-0.4,0.3-0.8,0.5-1.2h2c0.6,0,1.1-0.5,1.1-1.1v-3.7
	c0-0.6-0.5-1.1-1.1-1.1h-2c-0.1-0.4-0.3-0.8-0.5-1.2l1.4-1.4c0.4-0.4,0.4-1.1,0-1.6l-2.6-2.6c-0.4-0.4-1.2-0.4-1.6,0l-1.4,1.4
	c-0.4-0.2-0.8-0.3-1.2-0.5v-2c0-0.6-0.5-1.1-1.1-1.1h-3.7c-0.6,0-1.1,0.5-1.1,1.1v2c-0.4,0.1-0.8,0.3-1.2,0.5l-1.4-1.4
	C60,59.4,59.2,59.4,58.8,59.8z M62,62.5c0.5-0.3,1.1-0.5,1.7-0.7c0.3-0.1,0.4-0.3,0.4-0.6v-2.4h3.6v2.4c0,0.3,0.2,0.5,0.4,0.6
	c0.6,0.2,1.2,0.4,1.7,0.7c0.2,0.1,0.5,0.1,0.7-0.1l1.7-1.7l2.5,2.5l-1.7,1.7c-0.2,0.2-0.2,0.5-0.1,0.7c0.3,0.5,0.5,1.1,0.7,1.7
	c0.1,0.3,0.3,0.4,0.6,0.4h2.4v3.6h-2.4c-0.3,0-0.5,0.2-0.6,0.4c-0.2,0.6-0.4,1.2-0.7,1.7c-0.1,0.2-0.1,0.5,0.1,0.7l1.7,1.7l-2.5,2.5
	l-1.7-1.7c-0.2-0.2-0.5-0.2-0.7-0.1c-0.5,0.3-1.1,0.5-1.7,0.7c-0.3,0.1-0.4,0.3-0.4,0.6v2.4h-3.6V78c0-0.3-0.2-0.5-0.4-0.6
	c-0.6-0.2-1.2-0.4-1.7-0.7c-0.2-0.1-0.5-0.1-0.7,0.1l-1.7,1.7L57.1,76l1.7-1.7c0.2-0.2,0.2-0.5,0.1-0.7c-0.3-0.5-0.5-1.1-0.7-1.7
	c-0.1-0.3-0.3-0.4-0.6-0.4h-2.4v-3.6h2.4c0.3,0,0.5-0.2,0.6-0.4c0.2-0.6,0.4-1.2,0.7-1.7c0.1-0.2,0.1-0.5-0.1-0.7l-1.7-1.7l2.5-2.5
	l1.7,1.7C61.5,62.6,61.8,62.6,62,62.5z"/>
</svg>
