<?xml version="1.0" encoding="utf-8"?>
<!-- Generator: Adobe Illustrator 21.0.2, SVG Export Plug-In . SVG Version: 6.00 Build 0)  -->
<svg version="1.1" id="Layer_1" xmlns="http://www.w3.org/2000/svg" xmlns:xlink="http://www.w3.org/1999/xlink" x="0px" y="0px"
	 viewBox="0 0 100 101.5" style="enable-background:new 0 0 100 101.5;" xml:space="preserve">
<style type="text/css">
	.st0{fill:#FFFFFF;}
</style>
<g>
	<path d="M7.7,86.5c0-24.2,0-48.3,0-72.5c0.1-0.1,0.2-0.3,0.2-0.4c1.1-3.8,3.7-5.9,7.7-5.9c23.1,0,46.2,0,69.3,0
		c0.7,0,1.5,0,2.1,0.2c3.5,0.9,5.7,3.8,5.7,7.6c0,16.7,0,33.4,0,50c0,6.5,0,13,0,19.6c0,4.3-3.3,7.6-7.5,7.6c-23.4,0-46.7,0-70.1,0
		c-2,0-3.9-0.6-5.1-2.2C9.1,89.4,8.5,87.9,7.7,86.5z M13.3,25.1c23.3,0,50.6,0,73.9,0c0-3.3,0-6.5,0-9.8c-23.3,0-50.6,0-73.9,0
		C13.3,18.6,13.3,21.8,13.3,25.1z M30.3,30.3c0,3.3,0,6.6,0,9.8c8.3,0,16.6,0,24.8,0c0-3.3,0-6.5,0-9.8
		C46.9,30.3,38.6,30.3,30.3,30.3z M85.1,40.2c0-3.4,0-6.6,0-9.9c-8.3,0-16.5,0-24.8,0c0,3.3,0,6.6,0,9.9
		C68.6,40.2,76.8,40.2,85.1,40.2z M55.1,55.1c0-3.3,0-6.6,0-9.8c-8.3,0-16.6,0-24.8,0c0,3.3,0,6.5,0,9.8
		C38.6,55.1,46.8,55.1,55.1,55.1z M60.3,55.1c8.3,0,16.6,0,24.8,0c0-3.3,0-6.5,0-9.8c-8.3,0-16.5,0-24.8,0
		C60.3,48.6,60.3,51.8,60.3,55.1z M55.1,60.3c-8.3,0-16.6,0-24.8,0c0,3.3,0,6.5,0,9.8c8.3,0,16.5,0,24.8,0
		C55.1,66.9,55.1,63.6,55.1,60.3z M60.3,60.3c0,3.3,0,6.6,0,9.8c8.3,0,16.6,0,24.8,0c0-3.3,0-6.5,0-9.8
		C76.9,60.3,68.6,60.3,60.3,60.3z M55.1,75.3c-8.3,0-16.6,0-24.8,0c0,3.3,0,6.5,0,9.8c8.3,0,16.5,0,24.8,0
		C55.1,81.8,55.1,78.6,55.1,75.3z M85.1,75.3c-8.4,0-16.6,0-24.8,0c0,3.3,0,6.5,0,9.8c8.3,0,16.5,0,24.8,0
		C85.1,81.8,85.1,78.6,85.1,75.3z M25.2,30.4c-3.4,0-6.6,0-9.8,0c0,3.3,0,6.5,0,9.7c3.3,0,6.6,0,9.8,0
		C25.2,36.8,25.2,33.6,25.2,30.4z M25.1,45.3c-3.3,0-6.6,0-9.8,0c0,3.3,0,6.5,0,9.8c3.3,0,6.5,0,9.8,0
		C25.1,51.9,25.1,48.6,25.1,45.3z M15.3,60.3c0,3.4,0,6.6,0,9.9c3.3,0,6.5,0,9.8,0c0-3.3,0-6.6,0-9.9C21.9,60.3,18.7,60.3,15.3,60.3
		z M25.1,85.1c0-3.3,0-6.6,0-9.8c-3.3,0-6.5,0-9.8,0c0,3.3,0,6.6,0,9.8C18.6,85.1,21.8,85.1,25.1,85.1z"/>
	<path class="st0" d="M7.7,86.5c0.8,1.4,1.4,2.9,2.4,4.1c1.3,1.5,3.1,2.2,5.1,2.2c23.4,0,46.7,0,70.1,0c4.2,0,7.5-3.3,7.5-7.6
		c0-6.5,0-13,0-19.6c0-16.7,0-33.4,0-50c0-3.8-2.2-6.7-5.7-7.6c-0.7-0.2-1.4-0.2-2.1-0.2c-23.1,0-46.2,0-69.3,0c-4,0-6.6,2-7.7,5.9
		c0,0.1-0.1,0.3-0.2,0.4c0-2.2,0-4.3,0-6.5c28.5,0,57,0,85.4,0c0,28.5,0,57,0,85.4c-28.5,0-57,0-85.4,0C7.7,90.8,7.7,88.7,7.7,86.5z
		"/>
	<path class="st0" d="M13.3,25.1c0-3.3,0-6.5,0-9.8c23.3,0,50.5,0,73.9,0c0,3.3,0,6.5,0,9.8C63.9,25.1,36.6,25.1,13.3,25.1z"/>
	<path class="st0" d="M30.3,30.3c8.3,0,16.5,0,24.8,0c0,3.3,0,7.5,0,10.8c-8.2,0-16.5,0-24.8,0C30.3,37.9,30.3,33.6,30.3,30.3z"/>
	<path class="st0" d="M87.1,41.2c-6.3,0-16.5,0-26.8,0c0-3.3,0-7.5,0-10.9c10.3,0,20.5,0,26.8,0C87.1,33.6,87.1,37.8,87.1,41.2z"/>
	<path class="st0" d="M55.1,56.1c-8.3,0-16.5,0-24.8,0c0-3.3,0-7.5,0-10.8c8.2,0,16.5,0,24.8,0C55.1,48.6,55.1,52.8,55.1,56.1z"/>
	<path class="st0" d="M60.3,56.1c0-3.3,0-7.5,0-10.8c10.3,0,20.5,0,26.8,0c0,3.3,0,7.5,0,10.8C80.9,56.1,70.6,56.1,60.3,56.1z"/>
	<path class="st0" d="M55.1,60.3c0,3.3,0,7.5,0,10.8c-8.3,0-16.5,0-24.8,0c0-3.3,0-7.5,0-10.8C38.6,60.3,46.8,60.3,55.1,60.3z"/>
	<path class="st0" d="M60.3,60.3c10.3,0,20.5,0,26.8,0c0,3.3,0,7.5,0,10.8c-6.2,0-16.5,0-26.8,0C60.3,67.9,60.3,63.6,60.3,60.3z"/>
	<path class="st0" d="M55.1,75.3c0,3.3,0,7.5,0,10.8c-8.3,0-16.5,0-24.8,0c0-3.3,0-7.5,0-10.8C38.6,75.3,46.8,75.3,55.1,75.3z"/>
	<path class="st0" d="M87.1,75.3c0,3.3,0,7.5,0,10.8c-6.3,0-16.5,0-26.8,0c0-3.3,0-7.5,0-10.8C70.5,75.3,80.8,75.3,87.1,75.3z"/>
	<path class="st0" d="M25.2,30.4c0,3.3,0,7.5,0,10.7c-6.2,0-11.5,0-11.8,0c0-3.2,0-7.4,0-10.7C13.6,30.4,18.8,30.4,25.2,30.4z"/>
	<path class="st0" d="M25.1,45.3c0,3.3,0,7.5,0,10.8c-6.3,0-11.5,0-11.8,0c0-3.3,0-7.5,0-10.8C13.6,45.3,18.8,45.3,25.1,45.3z"/>
	<path class="st0" d="M13.3,60.3c0.3,0,5.5,0,11.8,0c0,3.3,0,7.5,0,10.9c-6.2,0-11.5,0-11.8,0C13.3,67.9,13.3,63.6,13.3,60.3z"/>
	<path class="st0" d="M25.1,86.1c-6.3,0-11.5,0-11.8,0c0-3.3,0-7.5,0-10.8c0.2,0,5.5,0,11.8,0C25.1,78.6,25.1,82.8,25.1,86.1z"/>
</g>
</svg>
