<?xml version="1.0" encoding="utf-8"?>
<!-- Generator: Adobe Illustrator 21.0.2, SVG Export Plug-In . SVG Version: 6.00 Build 0)  -->
<svg version="1.1" id="Layer_1" xmlns="http://www.w3.org/2000/svg" xmlns:xlink="http://www.w3.org/1999/xlink" x="0px" y="0px"
	 viewBox="0 0 64 65.8" style="enable-background:new 0 0 64 65.8;" xml:space="preserve">
<style type="text/css">
	.st0{fill:none;stroke:#000000;stroke-width:2;stroke-miterlimit:10;}
</style>
<g>
	<g>
		<path d="M56,7H8C7.4,7,7,7.4,7,8v48c0,0.6,0.4,1,1,1h48c0.6,0,1-0.4,1-1V8C57,7.4,56.6,7,56,7z M41,55V44c0-0.6-0.4-1-1-1
			s-1,0.4-1,1v11H25V44c0-0.6-0.4-1-1-1s-1,0.4-1,1v11H9V41h9c0.6,0,1-0.4,1-1s-0.4-1-1-1H9V25h9c0.6,0,1-0.4,1-1s-0.4-1-1-1H9V9h14
			v11c0,0.6,0.4,1,1,1s1-0.4,1-1V9h14v11c0,0.6,0.4,1,1,1s1-0.4,1-1V9h14v14h-9c-0.6,0-1,0.4-1,1s0.4,1,1,1h9v14h-9
			c-0.6,0-1,0.4-1,1s0.4,1,1,1h9v14H41z"/>
		<path d="M46.8,31.4C46.5,31,40.1,23,32,23c-8.1,0-14.5,8-14.8,8.4c-0.3,0.4-0.3,0.9,0,1.2C17.5,33,23.9,41,32,41
			c8.1,0,14.5-8,14.8-8.4C47.1,32.3,47.1,31.7,46.8,31.4z M32,39c-5.9,0-11.1-5.2-12.7-7c1.6-1.8,6.7-7,12.7-7
			c5.9,0,11.1,5.2,12.7,7C43.1,33.8,37.9,39,32,39z"/>
		<path d="M32,29c-1.7,0-3,1.3-3,3s1.3,3,3,3s3-1.3,3-3S33.7,29,32,29z M32,33c-0.6,0-1-0.4-1-1s0.4-1,1-1c0.6,0,1,0.4,1,1
			C33,32.6,32.6,33,32,33z"/>
	</g>
</g>
<line class="st0" x1="7.8" y1="15" x2="55" y2="15"/>
</svg>
